<?xml version="1.0" encoding="UTF-8" standalone="no"?>
<!-- Generator: Adobe Illustrator 16.0.0, SVG Export Plug-In . SVG Version: 6.00 Build 0)  -->

<svg
   version="1.1"
   id="Layer_1"
   x="0px"
   y="0px"
   width="30"
   height="30"
   viewBox="0 0 30 30"
   enable-background="new 0 0 128 128"
   xml:space="preserve"
   sodipodi:docname="email.svg"
   inkscape:version="1.2 (dc2aedaf03, 2022-05-15)"
   xmlns:inkscape="http://www.inkscape.org/namespaces/inkscape"
   xmlns:sodipodi="http://sodipodi.sourceforge.net/DTD/sodipodi-0.dtd"
   xmlns="http://www.w3.org/2000/svg"
   xmlns:svg="http://www.w3.org/2000/svg"><defs
   id="defs343" /><sodipodi:namedview
   id="namedview341"
   pagecolor="#505050"
   bordercolor="#eeeeee"
   borderopacity="1"
   inkscape:showpageshadow="0"
   inkscape:pageopacity="0"
   inkscape:pagecheckerboard="0"
   inkscape:deskcolor="#505050"
   showgrid="false"
   inkscape:zoom="18.716233"
   inkscape:cx="11.006489"
   inkscape:cy="18.326338"
   inkscape:window-width="1920"
   inkscape:window-height="1027"
   inkscape:window-x="-8"
   inkscape:window-y="-8"
   inkscape:window-maximized="1"
   inkscape:current-layer="Layer_1" />
<g
   id="g338"
   style="fill:#ffffff"
   transform="matrix(0.24670725,0,0,0.23407262,-0.79076852,0.01375374)">
	<g
   id="g296"
   style="fill:#ffffff">
		
			<rect
   x="10.65"
   y="37.957001"
   transform="matrix(0.7752,0.6317,-0.6317,0.7752,34.6859,3.3343)"
   fill="#282D33"
   width="4.0159998"
   height="24.889"
   id="rect294"
   style="fill:#ffffff" />
	</g>
	<g
   id="g300"
   style="fill:#ffffff">
		
			<rect
   x="102.65"
   y="48.275002"
   transform="matrix(0.6317,0.7752,-0.7752,0.6317,81.4248,-70.8212)"
   fill="#282D33"
   width="25.194"
   height="4.0170002"
   id="rect298"
   style="fill:#ffffff" />
	</g>
	<g
   id="g304"
   style="fill:#ffffff">
		<polygon
   fill="#282D33"
   points="124.772,58.583 124.772,127.782 3.228,127.782 3.228,58.583 7.244,58.583 7.244,123.766 120.756,123.766 120.756,58.583 "
   id="polygon302"
   style="fill:#ffffff" />
	</g>
	<g
   id="g314"
   style="fill:#ffffff">
		<g
   id="g308"
   style="fill:#ffffff">
			
				<rect
   x="21.263"
   y="86.904999"
   transform="matrix(0.6717,0.7408,-0.7408,0.6717,89.571,19.068)"
   fill="#282D33"
   width="4.0149999"
   height="47.389"
   id="rect306"
   style="fill:#ffffff" />
		</g>
		<g
   id="g312"
   style="fill:#ffffff">
			
				<rect
   x="81.035004"
   y="108.592"
   transform="matrix(0.7409,0.6716,-0.6716,0.7409,101.4137,-41.6815)"
   fill="#282D33"
   width="47.388"
   height="4.0149999"
   id="rect310"
   style="fill:#ffffff" />
		</g>
	</g>
	<g
   id="g318"
   style="fill:#ffffff">
		<path
   fill="#282D33"
   d="M 87.802,95.657 H 40.199 L 19.11,74.101 V 0 h 89.782 V 74.101 Z M 41.889,91.642 H 86.114 L 104.878,72.463 V 4.017 H 23.126 v 68.446 z"
   id="path316"
   style="fill:#ffffff" />
	</g>
	<g
   id="g332"
   style="fill:#ffffff">
		<g
   id="g322"
   style="fill:#ffffff">
			<path
   fill="#282D33"
   d="m 64.548,72.013 c -13.063,0 -23.688,-10.549 -23.688,-23.516 0,-12.964 10.626,-23.512 23.688,-23.512 7.128,0 13.807,3.139 18.324,8.612 l -3.097,2.558 c -3.753,-4.547 -9.303,-7.153 -15.228,-7.153 -10.848,0 -19.673,8.745 -19.673,19.495 0,10.752 8.825,19.5 19.673,19.5 4.328,0 8.431,-1.364 11.864,-3.944 l 2.412,3.212 c -4.134,3.105 -9.07,4.748 -14.275,4.748 z"
   id="path320"
   style="fill:#ffffff" />
		</g>
		<g
   id="g326"
   style="fill:#ffffff">
			<path
   fill="#282D33"
   d="m 60.633,60.049 c -0.001,0 0,0 0,0 -0.929,0 -1.912,-0.146 -2.922,-0.434 -3.041,-0.869 -5.34,-3.394 -6.148,-6.754 -1.09,-4.524 0.594,-9.536 4.392,-13.079 3.325,-3.098 7.857,-3.748 11.076,-3.748 2.697,0 4.714,0.449 4.798,0.469 l 2.114,0.478 -0.636,2.071 c -0.161,0.52 -3.928,12.771 -4.598,14.684 -1.388,3.952 -4.407,6.313 -8.076,6.313 z M 67.03,40.051 c -2.497,0 -5.97,0.463 -8.338,2.669 -3.275,3.056 -3.814,6.757 -3.226,9.201 0.473,1.963 1.692,3.36 3.347,3.832 0.65,0.186 1.263,0.28 1.819,0.28 2.49,0 3.705,-1.973 4.285,-3.628 0.477,-1.356 2.703,-8.549 3.855,-12.282 -0.518,-0.042 -1.108,-0.072 -1.742,-0.072 z"
   id="path324"
   style="fill:#ffffff" />
		</g>
		<g
   id="g330"
   style="fill:#ffffff">
			<path
   fill="#282D33"
   d="m 73.686,59.837 c -2.044,0 -3.935,-0.698 -5.44,-2.057 -3.11,-2.806 -0.969,-12.295 0.584,-17.701 l 3.859,1.108 c -1.72,5.996 -2.536,12.504 -1.713,13.653 1.489,1.338 3.39,1.078 4.712,0.617 3.032,-1.055 6.506,-4.528 7.283,-9.13 0.561,-3.326 -0.098,-8.342 -6.423,-13.344 l 2.49,-3.15 c 8.282,6.55 8.5,13.564 7.893,17.163 -0.93,5.506 -5.01,10.545 -9.923,12.255 -1.128,0.393 -2.246,0.586 -3.322,0.586 z"
   id="path328"
   style="fill:#ffffff" />
		</g>
	</g>
	<g
   id="g336"
   style="fill:#ffffff">
		<polygon
   fill="#282D33"
   points="123.259,60.165 86.428,95.657 41.573,95.657 4.743,60.165 7.529,57.273 43.193,91.642 84.808,91.642 120.472,57.273 "
   id="polygon334"
   style="fill:#ffffff" />
	</g>
</g>
</svg>
