<?xml version="1.0" encoding="UTF-8" standalone="no"?>
<!-- Generator: Adobe Illustrator 16.0.0, SVG Export Plug-In . SVG Version: 6.00 Build 0)  -->

<svg
   version="1.1"
   id="Layer_5"
   x="0px"
   y="0px"
   width="40"
   height="40"
   viewBox="0 0 40 40"
   enable-background="new 0 0 512 512"
   xml:space="preserve"
   sodipodi:docname="reshot-icon-facebook-square-GCAE9R73J5.svg"
   inkscape:version="1.2 (dc2aedaf03, 2022-05-15)"
   xmlns:inkscape="http://www.inkscape.org/namespaces/inkscape"
   xmlns:sodipodi="http://sodipodi.sourceforge.net/DTD/sodipodi-0.dtd"
   xmlns="http://www.w3.org/2000/svg"
   xmlns:svg="http://www.w3.org/2000/svg"><defs
   id="defs7" /><sodipodi:namedview
   id="namedview5"
   pagecolor="#505050"
   bordercolor="#eeeeee"
   borderopacity="1"
   inkscape:showpageshadow="0"
   inkscape:pageopacity="0"
   inkscape:pagecheckerboard="0"
   inkscape:deskcolor="#505050"
   showgrid="false"
   inkscape:zoom="13.234375"
   inkscape:cx="44.731995"
   inkscape:cy="19.494687"
   inkscape:window-width="1920"
   inkscape:window-height="1027"
   inkscape:window-x="-8"
   inkscape:window-y="-8"
   inkscape:window-maximized="1"
   inkscape:current-layer="Layer_5" />
<path
   fill-rule="evenodd"
   clip-rule="evenodd"
   fill="#3b5998"
   d="m 34.948052,40.023612 h -6.87492 c -1.72609,0 -3.12492,-1.40016 -3.12492,-3.125 v -8.74992 c 0,-1.72609 1.39883,-3.12492 3.12492,-3.12492 h 1.00953 c 0.65,0 1.31594,-0.52 1.48922,-1.17431 l 0.66281,-2.49632 c 0.19407,-0.7275 -0.21969,-1.32992 -0.92593,-1.32992 h -2.23571 c -1.72609,0 -3.12492,-1.3986 -3.12492,-3.12406 v -1.25 c 0,-1.72672 1.39883,-3.12555 3.12492,-3.12555 h 1.87563 c 0.68906,0 1.25,-0.55907 1.25,-1.25 V 8.7733025 c 0,-0.68969 -0.56094,-1.25032 -1.25,-1.25032 h -3.75063 c -3.45211,0 -6.24929,2.7990695 -6.24929,6.2508695 v 3.12531 c 0,1.72538 -1.40016,3.12406 -3.12524,3.12406 h -0.59571 c -0.70616,0 -1.2796,0.60242 -1.2796,1.32992 v 2.49632 c 0,0.65431 0.52703,1.17431 1.17733,1.17431 h 0.69798 c 1.72516,0 3.12524,1.39883 3.12524,3.12492 v 8.74992 c 0,1.72484 -1.40016,3.125 -3.12524,3.125 h -0.625 c -0.69094,0 -1.25031,-0.56031 -1.25031,-1.25 0,-0.69093 0.55937,-1.25 1.25031,-1.25 0.68937,0 1.25,-0.56031 1.25,-1.25 v -7.49992 c 0,-0.69093 -0.56055,-1.25 -1.25,-1.25 h -0.82 c -1.61867,0 -2.93055,-1.29516 -2.93055,-2.93571 v -3.7439 c 0,-1.80907 1.43524,-3.32126 3.20524,-3.32126 h 0.54531 c 0.68937,0 1.25,-0.55937 1.25,-1.24874 v -3.12531 c 0,-4.4875895 3.63742,-8.1246095 8.12461,-8.1246095 h 5.00063 c 1.72546,0 3.12374,1.3986 3.12374,3.12406 v 3.7503095 c 0,1.72539 -1.39828,3.12524 -3.12374,3.12524 h -1.87563 -1.25 v 1.25031 c 0,0.68937 0.55907,1.24874 1.25,1.24874 h 2.34132 c 1.77125,0 2.92172,1.51212 2.58297,3.32126 l -0.70249,3.7439 c -0.30704,1.64055 -1.86095,2.93571 -3.47961,2.93571 h -0.74219 c -0.69093,0 -1.25,0.55907 -1.25,1.25 v 7.49992 c 0,0.68969 0.55907,1.25 1.25,1.25 h 6.24992 c 1.38063,0 2.5,-1.11937 2.5,-2.5 V 5.0241625 c 0,-1.38188 -1.11937,-2.50024 -2.5,-2.50024 H 4.9486019 c -1.38063,0 -2.50024,1.11844 -2.50024,2.50024 V 35.023612 c 0,1.38063 1.11969,2.5 2.50024,2.5 H 6.198602 c 0.68969,0 1.2502399,0.55907 1.2502399,1.25 0,0.68969 -0.5605499,1.25 -1.2502399,1.25 H 4.9486019 c -2.76086,0 -5.00054995,-2.23875 -5.00054995,-5 V 5.0241625 c 0,-2.76243 2.23968995,-5.00055 5.00054995,-5.00055 H 34.948052 c 2.76243,0 5,2.23812 5,5.00055 V 35.023612 c 0,2.76125 -2.23757,5 -5,5 z m -23.75008,-2.5 c 0.69093,0 1.25,0.55907 1.25,1.25 0,0.68969 -0.55907,1.25 -1.25,1.25 -0.68968,0 -1.2503101,-0.56031 -1.2503101,-1.25 0,-0.69093 0.5606301,-1.25 1.2503101,-1.25 z"
   id="path2"
   style="stroke-width:0.0781251" />
</svg>
