<?xml version="1.0" encoding="UTF-8" standalone="no"?>
<!-- Generator: Adobe Illustrator 16.0.0, SVG Export Plug-In . SVG Version: 6.00 Build 0)  -->

<svg
   version="1.1"
   id="Layer_1"
   x="0px"
   y="0px"
   width="40"
   height="40"
   viewBox="0 0 40 40"
   enable-background="new 0 0 64 64"
   xml:space="preserve"
   sodipodi:docname="reshot-icon-messenger-82S9U6ZBLD.svg"
   inkscape:version="1.2 (dc2aedaf03, 2022-05-15)"
   xmlns:inkscape="http://www.inkscape.org/namespaces/inkscape"
   xmlns:sodipodi="http://sodipodi.sourceforge.net/DTD/sodipodi-0.dtd"
   xmlns="http://www.w3.org/2000/svg"
   xmlns:svg="http://www.w3.org/2000/svg"><defs
   id="defs7" /><sodipodi:namedview
   id="namedview5"
   pagecolor="#505050"
   bordercolor="#eeeeee"
   borderopacity="1"
   inkscape:showpageshadow="0"
   inkscape:pageopacity="0"
   inkscape:pagecheckerboard="0"
   inkscape:deskcolor="#505050"
   showgrid="false"
   inkscape:zoom="13.234375"
   inkscape:cx="28.713105"
   inkscape:cy="13.903188"
   inkscape:window-width="1920"
   inkscape:window-height="1027"
   inkscape:window-x="-8"
   inkscape:window-y="-8"
   inkscape:window-maximized="1"
   inkscape:current-layer="Layer_1" />
<path
   fill-rule="evenodd"
   clip-rule="evenodd"
   fill="#288ef7"
   d="m 26.826393,36.377423 c -0.035,0.015 -0.0725,0.0275 -0.109375,0.03875 -0.01062,0.0031 -0.01938,0.0081 -0.02875,0.01125 l -0.0012,-0.0019 c -0.119375,0.03813 -0.244375,0.065 -0.37625,0.065 -0.690625,0 -1.25,-0.560005 -1.25,-1.250011 0,-0.553131 0.360625,-1.01501 0.85625,-1.181887 l -0.0082,-0.0225 c 6.78565,-2.23687 11.652525,-8.233176 11.652525,-15.300117 0,-8.973834 -7.834375,-16.2501526 -17.5,-16.2501526 -9.665,0 -17.4999998,7.2763186 -17.4999998,16.2501526 0,4.998797 2.4425,9.454463 6.269375,12.431991 0.02,0.02438 0.0275,0.05188 0.055,0.07313 0.715,0.553126 1.1756248,1.419384 1.1756248,2.391893 v 3.677535 l 4.246875,-2.895652 0.005,0.0062 c 0.20875,-0.157502 0.46625,-0.254378 0.748125,-0.254378 0.690625,0 1.25,0.559381 1.25,1.250012 0,0.477505 -0.27125,0.888133 -0.665,1.096885 l -4.365,3.056329 c -0.38125,0.262503 -0.84375,0.416879 -1.3418752,0.416879 -1.3131246,-6.25e-4 -2.3781246,-1.065635 -2.3781246,-2.378147 v -4.24254 c -4.57125,-3.434407 -7.50000005,-8.710082 -7.50000005,-14.630137 0,-10.355722 8.95437505,-18.75017564 19.99999985,-18.75017564 11.045625,0 20,8.39445364 20,18.75017564 0,8.127576 -5.52125,15.039516 -13.235,17.641415 z M 9.0801432,23.211675 c -0.423125,-0.568131 -0.321875,-1.381888 0.226875,-1.818142 l 7.6949998,-6.137558 c 0.54875,-0.438129 1.336875,-0.331878 1.76,0.235002 l 3.830625,5.131923 6.703125,-5.345675 c 0.54875,-0.438129 1.336875,-0.333753 1.760625,0.233128 0.423125,0.56813 0.32125,1.381887 -0.226875,1.818142 l -7.696875,6.137557 c -0.54875,0.438129 -1.336875,0.331878 -1.75875,-0.235002 l -3.831875,-5.131923 -6.703125,5.345675 c -0.54875,0.438129 -1.3368748,0.333753 -1.7587498,-0.233127 z M 21.311393,34.98616 c 0.690625,0 1.25,0.55938 1.25,1.250012 0,0.690631 -0.559375,1.250012 -1.25,1.250012 -0.690625,0 -1.25,-0.559381 -1.25,-1.250012 0,-0.690632 0.559375,-1.250012 1.25,-1.250012 z"
   id="path2"
   style="stroke-width:0.625003" />
</svg>
