<?xml version="1.0" encoding="UTF-8" standalone="no"?>
<!-- Generator: Adobe Illustrator 20.1.0, SVG Export Plug-In . SVG Version: 6.00 Build 0)  -->

<svg
   version="1.1"
   id="Phone-14"
   x="0px"
   y="0px"
   viewBox="0 0 30.000001 30"
   xml:space="preserve"
   sodipodi:docname="phone.svg"
   width="30"
   height="30"
   inkscape:version="1.2 (dc2aedaf03, 2022-05-15)"
   xmlns:inkscape="http://www.inkscape.org/namespaces/inkscape"
   xmlns:sodipodi="http://sodipodi.sourceforge.net/DTD/sodipodi-0.dtd"
   xmlns="http://www.w3.org/2000/svg"
   xmlns:svg="http://www.w3.org/2000/svg"><defs
   id="defs7" /><sodipodi:namedview
   id="namedview5"
   pagecolor="#505050"
   bordercolor="#eeeeee"
   borderopacity="1"
   inkscape:showpageshadow="0"
   inkscape:pageopacity="0"
   inkscape:pagecheckerboard="0"
   inkscape:deskcolor="#505050"
   showgrid="false"
   inkscape:zoom="14.952512"
   inkscape:cx="3.1432845"
   inkscape:cy="18.72595"
   inkscape:window-width="1920"
   inkscape:window-height="1027"
   inkscape:window-x="-8"
   inkscape:window-y="-8"
   inkscape:window-maximized="1"
   inkscape:current-layer="Phone-14" />
<path
   d="m 29.277218,21.594493 -4.454489,-4.474535 c -0.395884,-0.398721 -0.923031,-0.618123 -1.483779,-0.618123 0,0 -0.0011,0 -0.0021,0 -0.560749,0 -1.087894,0.220457 -1.48378,0.618123 L 18.883411,20.102981 9.9733816,11.152856 12.943041,8.1698322 c 0.819072,-0.8227575 0.819072,-2.1623756 -0.0011,-2.9851331 L 8.4864524,0.71016387 C 8.0905678,0.31249772 7.5634217,0.09309572 7.0026728,0.09309572 h -0.00105 c -0.5617991,0 -1.088945,0.22045682 -1.4848296,0.61917778 L 1.061254,5.1878635 C 0.92579216,5.3228801 -0.24821037,6.5992091 0.30938833,9.4039685 0.96674571,12.704492 3.717986,16.807732 8.4864524,21.597658 c 6.8245456,6.855258 11.1288716,8.372085 13.6018376,8.372085 1.71165,0 2.547522,-0.726769 2.734439,-0.914526 l 4.454489,-4.474536 c 0.396935,-0.398721 0.616404,-0.929294 0.615353,-1.493621 0,-0.563272 -0.218418,-1.093846 -0.615353,-1.492567 z m -5.939319,5.968157 c -0.0294,0.02953 -3.579762,2.372284 -13.3666174,-7.457559 C -0.02664101,10.063229 2.550284,6.6783205 2.5460837,6.6793752 L 7.0016227,2.2027304 11.457162,6.6793752 7.7450876,10.408155 c -0.4105858,0.412433 -0.4105858,1.079078 0,1.491512 L 18.139946,22.341303 c 0.410586,0.412434 1.074244,0.412434 1.484829,0 l 3.712075,-3.729833 4.455539,4.476645 z"
   id="path2"
   style="fill:#ffffff;stroke-width:1.05245" />
</svg>
